<?xml version="1.0" standalone="no"?>
<!DOCTYPE svg PUBLIC "-//W3C//DTD SVG 20010904//EN"
 "http://www.w3.org/TR/2001/REC-SVG-20010904/DTD/svg10.dtd">
<svg version="1.0" xmlns="http://www.w3.org/2000/svg"
 width="512.000000pt" height="512.000000pt" viewBox="0 0 512.000000 512.000000"
 preserveAspectRatio="xMidYMid meet">
<metadata>
Created by potrace 1.11, written by Peter Selinger 2001-2013
</metadata>
<g transform="translate(0.000000,512.000000) scale(0.100000,-0.100000)"
fill="#000000" stroke="none">
<path d="M2600 4930 c-74 -17 -87 -20 -135 -37 -49 -18 -212 -96 -270 -131
-37 -22 -144 -93 -165 -109 -8 -6 -62 -48 -120 -93 -163 -125 -331 -285 -455
-430 -102 -120 -189 -276 -220 -395 -41 -157 6 -383 128 -615 102 -193 191
-318 573 -805 119 -152 115 -147 210 -275 132 -177 191 -271 218 -342 44 -115
23 -210 -65 -296 -88 -87 -184 -106 -286 -57 -89 43 -148 94 -352 296 -207
207 -340 264 -488 210 -121 -44 -315 -187 -489 -359 -67 -66 -78 -96 -48 -126
23 -24 55 -20 120 15 48 25 68 30 104 27 83 -8 133 -44 340 -242 317 -303 461
-357 672 -250 87 44 311 201 348 243 3 3 38 35 79 71 164 143 305 293 384 407
87 125 147 288 147 399 0 210 -117 478 -355 808 -20 27 -34 56 -33 65 6 29
231 158 357 203 71 26 212 32 271 12 118 -41 242 -129 349 -248 14 -16 31 -34
37 -40 5 -6 35 -45 65 -86 150 -205 229 -363 284 -565 35 -130 36 -144 41
-320 4 -194 -15 -322 -76 -506 -81 -240 -192 -423 -360 -589 -207 -206 -465
-348 -819 -451 -137 -40 -161 -54 -161 -95 0 -56 56 -59 250 -13 47 11 92 22
100 24 162 38 448 163 640 280 95 58 276 189 360 261 44 37 293 286 318 318
35 44 142 196 142 202 0 4 6 15 14 23 27 30 124 236 160 340 74 212 104 448
84 664 -28 318 -115 528 -340 827 -121 161 -213 261 -359 391 -141 124 -184
178 -212 262 -4 9 -15 17 -26 17 -18 0 -88 -35 -101 -50 -3 -3 -50 -35 -105
-70 -55 -35 -206 -134 -335 -219 -129 -85 -273 -179 -320 -209 -47 -31 -143
-94 -215 -140 -71 -47 -137 -87 -146 -89 -22 -6 -50 22 -160 162 -274 347
-403 579 -432 777 -23 158 34 304 165 423 187 170 347 198 512 88 39 -26 111
-95 276 -267 89 -92 162 -142 242 -168 73 -22 103 -23 181 -2 109 28 247 107
390 221 140 113 165 154 112 189 -26 17 -37 16 -95 -9 -32 -14 -40 -14 -87 3
-101 35 -189 106 -288 231 -113 142 -185 198 -305 233 -56 17 -188 20 -250 6z"/>
</g>
</svg>
